<mxfile host="app.diagrams.net" agent="Mozilla/5.0 (Macintosh; Intel Mac OS X 10_15_7) AppleWebKit/537.36 (KHTML, like Gecko) Chrome/130.0.0.0 Safari/537.36" version="24.8.2">
  <diagram name="Страница — 1" id="EJbwib79DhUvNXfZcAuw">
    <mxGraphModel dx="510" dy="1012" grid="0" gridSize="10" guides="1" tooltips="1" connect="1" arrows="1" fold="1" page="0" pageScale="1" pageWidth="827" pageHeight="1169" math="0" shadow="0">
      <root>
        <mxCell id="0" />
        <mxCell id="1" parent="0" />
        <UserObject label="https://app.diagrams.net/" link="https://app.diagrams.net/" id="F-1Ph3_zEbMsGIc_cCgi-1">
          <mxCell style="text;whiteSpace=wrap;" vertex="1" parent="1">
            <mxGeometry x="151" y="-7" width="160" height="36" as="geometry" />
          </mxCell>
        </UserObject>
        <UserObject label="https://app.diagrams.net/" link="https://app.diagrams.net/" id="F-1Ph3_zEbMsGIc_cCgi-2">
          <mxCell style="text;whiteSpace=wrap;" vertex="1" parent="1">
            <mxGeometry x="151" y="-7" width="160" height="36" as="geometry" />
          </mxCell>
        </UserObject>
      </root>
    </mxGraphModel>
  </diagram>
</mxfile>
